<?xml version="1.0" encoding="utf-8"?>
<!-- Generator: Adobe Illustrator 16.0.0, SVG Export Plug-In . SVG Version: 6.00 Build 0)  -->
<!DOCTYPE svg PUBLIC "-//W3C//DTD SVG 1.1//EN" "http://www.w3.org/Graphics/SVG/1.1/DTD/svg11.dtd">
<svg version="1.1" id="Layer_1" xmlns="http://www.w3.org/2000/svg" xmlns:xlink="http://www.w3.org/1999/xlink" x="0px" y="0px"
	 width="218.305px" height="137.701px" viewBox="0 0 218.305 137.701" enable-background="new 0 0 218.305 137.701"
	 xml:space="preserve">
<g>
	<g>
		<path fill="none" stroke="#FFFFFF" stroke-width="6" stroke-miterlimit="10" d="M211.097,28.992
			C174.92,30.437,14.402,42.205,2.979,137.344"/>
		<g>
			<path fill="#FFFFFF" d="M169.234,1.466c-0.849,1.421-0.379,3.265,1.045,4.113l39.444,23.472l-37.951,25.818
				c-1.37,0.932-1.727,2.801-0.794,4.168c0.933,1.367,2.81,1.714,4.168,0.794l41.846-28.468c0.848-0.577,1.343-1.547,1.312-2.572
				s-0.584-1.964-1.465-2.488L173.347,0.421c-0.507-0.301-1.071-0.437-1.622-0.42C170.735,0.031,169.78,0.553,169.234,1.466z"/>
		</g>
	</g>
</g>
</svg>
