<?xml version="1.0" encoding="utf-8"?>
<!-- Generator: Adobe Illustrator 16.0.0, SVG Export Plug-In . SVG Version: 6.00 Build 0)  -->
<!DOCTYPE svg PUBLIC "-//W3C//DTD SVG 1.1//EN" "http://www.w3.org/Graphics/SVG/1.1/DTD/svg11.dtd">
<svg version="1.1" id="Layer_1" xmlns="http://www.w3.org/2000/svg" xmlns:xlink="http://www.w3.org/1999/xlink" x="0px" y="0px"
	 width="218.305px" height="137.697px" viewBox="0 0 218.305 137.697" enable-background="new 0 0 218.305 137.697"
	 xml:space="preserve">
<g>
	<g>
		<path fill="none" stroke="#FFFFFF" stroke-width="6" stroke-miterlimit="10" d="M7.208,28.988
			C43.385,30.433,203.903,42.2,215.327,137.339"/>
		<g>
			<path fill="#FFFFFF" d="M47.327,59.033c0.933-1.367,0.576-3.236-0.794-4.168L8.582,29.047L48.026,5.575
				c1.424-0.848,1.893-2.692,1.045-4.113s-2.701-1.881-4.113-1.045L1.466,26.299c-0.881,0.524-1.434,1.463-1.465,2.488
				s0.464,1.996,1.312,2.572l41.845,28.468c0.488,0.332,1.043,0.5,1.594,0.517C45.742,60.375,46.726,59.912,47.327,59.033z"/>
		</g>
	</g>
</g>
</svg>
